<?xml version="1.0" encoding="UTF-8"?>
<svg version="1.1" xmlns="http://www.w3.org/2000/svg" viewBox="0 0 1124 1125" width="1124" height="1125">
  <defs>
    <linearGradient id="g" x1="0" y1="1" x2="1" y2="0" gradientUnits="objectBoundingBox">
      <stop offset="0%"   stop-color="#FF0000"/>
      <stop offset="50%"  stop-color="#00FF00"/>
      <stop offset="100%" stop-color="#0000FF"/>
    </linearGradient>
  </defs>
  <path d="M0 0 C1.42331943 0.00222359 2.84663893 0.00440005 4.2699585 0.00653076 C25.50550277 0.0505419 46.55381173 0.44116794 67.625 3.3125 C68.37857788 3.4143158 69.13215576 3.51613159 69.90856934 3.62103271 C91.02859252 6.50280302 111.91786994 10.21794191 132.625 15.3125 C133.59856445 15.54936523 134.57212891 15.78623047 135.57519531 16.03027344 C166.98985189 23.73854831 197.57149233 34.07499787 227.13525391 47.20800781 C229.65179164 48.32438521 232.17501344 49.42452314 234.69921875 50.5234375 C260.7173164 61.9341349 286.6344788 75.78246333 309.91650391 92.12060547 C311.76922236 93.41311354 313.63858268 94.67868513 315.51171875 95.94140625 C325.11237624 102.43364462 334.43112762 109.25761017 343.625 116.3125 C344.23085938 116.7765625 344.83671875 117.240625 345.4609375 117.71875 C358.54710626 127.77624215 370.94163995 138.53520335 382.99853516 149.79931641 C384.6621964 151.34710572 386.33533726 152.88397145 388.01171875 154.41796875 C396.37937109 162.07875082 404.56313305 169.79847414 411.953125 178.42578125 C413.56704468 180.24709716 415.24997231 181.93517968 417 183.625 C420.70778509 187.27510844 423.92583948 191.25707195 427.18359375 195.30859375 C429.27215994 197.8783656 431.40532463 200.39976521 433.56762695 202.9074707 C440.31612911 210.75286004 446.52052755 218.96000471 452.625 227.3125 C453.0566748 227.90144043 453.48834961 228.49038086 453.93310547 229.09716797 C485.08970538 271.73827797 510.62339389 318.63845721 528.625 368.3125 C528.86563171 368.97640747 529.10626343 369.64031494 529.35418701 370.32434082 C545.67870718 415.59330115 556.12054022 462.53565162 560.8125 510.4375 C560.88428467 511.16815674 560.95606934 511.89881348 561.0300293 512.65161133 C562.44716565 528.42653115 562.83172957 544.23193846 562.8125 560.0625 C562.81189575 560.99414978 562.8112915 561.92579956 562.81066895 562.88568115 C562.65905643 649.75780065 542.13694609 734.34029203 455.625 892.3125 C455.20412109 892.89676758 454.78324219 893.48103516 454.34960938 894.08300781 C448.2654008 902.47341129 441.69332611 910.47237174 435.12060547 918.48046875 C433.8304404 920.06084725 432.55624706 921.65423991 431.28515625 923.25 C425.3550198 930.67095288 418.90136794 937.54189627 412.3828125 944.44140625 C410.17728296 946.78906992 407.9997495 949.1614539 405.82446289 951.53710938 C398.72339164 959.28831908 391.50367691 966.79486123 383.51171875 973.640625 C381.69040284 975.25454468 380.00232032 976.93747231 378.3125 978.6875 C374.65905535 982.39867402 370.67353954 985.61953395 366.6171875 988.87890625 C364.09802066 990.92778477 361.63391428 993.02483387 359.18237305 995.15356445 C351.0968482 1002.14395002 342.52744794 1008.43263454 333.86865234 1014.69042969 C331.87249507 1016.13357103 329.88259385 1017.58480639 327.89453125 1019.0390625 C253.21426873 1073.3886369 164.38526569 1107.45808442 73 1119.5 C71.25360229 1119.73227295 71.25360229 1119.73227295 69.47192383 1119.96923828 C65.52733302 1120.46456915 61.5796751 1120.90732892 57.625 1121.3125 C56.76449036 1121.40077057 55.90398071 1121.48904114 55.01739502 1121.57998657 C37.09993689 1123.35316749 19.2406724 1123.67477722 1.25 1123.625 C-0.17331943 1123.62277641 -1.59663893 1123.62059995 -3.0199585 1123.61846924 C-24.25550277 1123.5744581 -45.30381173 1123.18383206 -66.375 1120.3125 C-67.12857788 1120.2106842 -67.88215576 1120.10886841 -68.65856934 1120.00396729 C-89.77859252 1117.12219698 -110.66786994 1113.40705809 -131.375 1108.3125 C-132.83534668 1107.95720215 -132.83534668 1107.95720215 -134.32519531 1107.59472656 C-165.73985189 1099.88645169 -196.32149233 1089.55000213 -225.88525391 1076.41699219 C-228.40179164 1075.30061479 -230.92501344 1074.20047686 -233.44921875 1073.1015625 C-259.4673164 1061.6908651 -285.3844788 1047.84253667 -308.66650391 1031.50439453 C-310.51922236 1030.21188646 -312.38858268 1028.94631487 -314.26171875 1027.68359375 C-323.86237624 1021.19135538 -333.18112762 1014.36738983 -342.375 1007.3125 C-342.98085938 1006.8484375 -343.58671875 1006.384375 -344.2109375 1005.90625 C-357.29710626 995.84875785 -369.69163995 985.08979665 -381.74853516 973.82568359 C-383.4121964 972.27789428 -385.08533726 970.74102855 -386.76171875 969.20703125 C-395.12937109 961.54624918 -403.31313305 953.82652586 -410.703125 945.19921875 C-412.31704468 943.37790284 -413.99997231 941.68982032 -415.75 940 C-419.45778509 936.34989156 -422.67583948 932.36792805 -425.93359375 928.31640625 C-428.02215994 925.7466344 -430.15532463 923.22523479 -432.31762695 920.7175293 C-439.06612911 912.87213996 -445.27052755 904.66499529 -451.375 896.3125 C-451.8066748 895.72355957 -452.23834961 895.13461914 -452.68310547 894.52783203 C-483.83970538 851.88672203 -509.37339389 804.98654279 -527.375 755.3125 C-527.61563171 754.64859253 -527.85626343 753.98468506 -528.10418701 753.30065918 C-550.07217727 692.38198782 -561.6415623 628.27691338 -561.5625 563.5 C-561.56159363 562.10627167 -561.56159363 562.10627167 -561.56066895 560.68438721 C-561.40877227 473.83468365 -540.87624218 389.2627394 -454.375 231.3125 C-453.95412109 230.72823242 -453.53324219 230.14396484 -453.09960938 229.54199219 C-447.0154008 221.15158871 -440.44332611 213.15262826 -433.87060547 205.14453125 C-432.5804404 203.56415275 -431.30624706 201.97076009 -430.03515625 200.375 C-424.1050198 192.95404712 -417.65136794 186.08310373 -411.1328125 179.18359375 C-408.92728296 176.83593008 -406.7497495 174.4635461 -404.57446289 172.08789062 C-397.47339164 164.33668092 -390.25367691 156.83013877 -382.26171875 149.984375 C-380.44040284 148.37045532 -378.75232032 146.68752769 -377.0625 144.9375 C-373.40905535 141.22632598 -369.42353954 138.00546605 -365.3671875 134.74609375 C-362.84802066 132.69721523 -360.38391428 130.60016613 -357.93237305 128.47143555 C-349.8468482 121.48104998 -341.27744794 115.19236546 -332.61865234 108.93457031 C-330.62249507 107.49142897 -328.63259385 106.04019361 -326.64453125 104.5859375 C-251.96426873 50.2363631 -163.13526569 16.16691558 -71.75 4.125 C-70.58573486 3.97015137 -69.42146973 3.81530273 -68.22192383 3.65576172 C-64.27733302 3.16043085 -60.3296751 2.71767108 -56.375 2.3125 C-55.08423553 2.18009415 -55.08423553 2.18009415 -53.76739502 2.04501343 C-35.84993689 0.27183251 -17.9906724 -0.04977722 0 0 Z M-159.375 100.3125 C-160.84936523 100.82997803 -160.84936523 100.82997803 -162.35351562 101.35791016 C-184.35135071 109.17293052 -205.64515876 118.59016832 -226.375 129.3125 C-226.375 129.9725 -226.375 130.6325 -226.375 131.3125 C-225.66819092 131.71339844 -224.96138184 132.11429688 -224.2331543 132.52734375 C-211.0076441 140.03673459 -197.8182284 147.59423295 -184.75 155.375 C-171.69628677 163.14637633 -158.54909898 170.74745193 -145.375 178.3125 C-131.06361915 186.53061679 -116.80178808 194.81919344 -102.62133789 203.26147461 C-94.00699337 208.3768031 -85.32582397 213.3635901 -76.61529541 218.31222534 C-66.84725461 223.86450512 -57.17118844 229.55970782 -47.51953125 235.3125 C-39.52073041 240.06904591 -31.46610104 244.71577462 -23.375 249.3125 C-14.11125164 254.57595685 -4.9055077 259.92430068 4.25 265.375 C17.30374419 273.14632462 30.45090029 280.74745151 43.625 288.3125 C57.93638085 296.53061679 72.19821192 304.81919344 86.37866211 313.26147461 C94.99300663 318.3768031 103.67417603 323.3635901 112.38470459 328.31222534 C121.02050377 333.22092444 129.59181606 338.22661558 138.125 343.3125 C150.15144075 350.47757933 162.28374119 357.44047215 174.45040894 364.36303711 C189.89084318 373.15278794 205.25100352 382.08262337 220.59130859 391.0456543 C232.24185321 397.8486481 243.9341954 404.57901284 255.625 411.3125 C269.2991218 419.18830724 282.96236974 427.08105846 296.58642578 435.04321289 C303.91812479 439.32494917 311.26782981 443.57470007 318.625 447.8125 C326.97298459 452.62101844 335.30743184 457.45155683 343.625 462.3125 C356.26243454 469.69664893 368.94175298 477.00740135 381.625 484.3125 C395.28973537 492.182901 408.94579828 500.06659379 422.55786133 508.02783203 C427.8673689 511.13042055 433.18621553 514.21586417 438.51953125 517.27734375 C439.09831024 517.60989166 439.67708923 517.94243958 440.27340698 518.2850647 C443.05873392 519.88526434 445.84541775 521.48298906 448.63476562 523.07617188 C474.37895681 537.85494151 474.37895681 537.85494151 479.7421875 551.90234375 C482.339265 561.93441747 481.81870777 573.20591755 476.625 582.3125 C470.81119417 590.75665351 463.11190709 596.43212118 453.08984375 598.94921875 C450.51476925 599.32874637 448.04032086 599.51636433 445.4375 599.5625 C444.57769531 599.58828125 443.71789062 599.6140625 442.83203125 599.640625 C433.54462804 598.6903913 425.96905937 594.61685928 418 590 C416.91388428 589.38116943 415.82776855 588.76233887 414.70874023 588.12475586 C411.34007212 586.19990703 407.98107495 584.25921132 404.625 582.3125 C403.60970215 581.72436523 402.5944043 581.13623047 401.54833984 580.53027344 C396.59669006 577.65732477 391.65338201 574.77042108 386.71484375 571.875 C380.40929535 568.18036663 374.08202466 564.5240276 367.75 560.875 C366.67129639 560.25318848 365.59259277 559.63137695 364.48120117 558.99072266 C361.19607749 557.09750101 357.91060272 555.20489017 354.625 553.3125 C340.9508782 545.43669276 327.28763026 537.54394154 313.66357422 529.58178711 C306.33187521 525.30005083 298.98217019 521.05029993 291.625 516.8125 C283.27701541 512.00398156 274.94256816 507.17344317 266.625 502.3125 C253.98756546 494.92835107 241.30824702 487.61759865 228.625 480.3125 C214.9508782 472.43669276 201.28763026 464.54394154 187.66357422 456.58178711 C182.51203492 453.57327126 177.3549052 450.5749453 172.1875 447.59375 C171.105896 446.96952148 170.02429199 446.34529297 168.90991211 445.70214844 C166.73390873 444.45040067 164.5550603 443.2035847 162.37329102 441.96191406 C156.8171221 438.78934956 151.35163322 435.53162129 145.96484375 432.078125 C144.88912109 431.40458984 143.81339844 430.73105469 142.70507812 430.03710938 C140.65926633 428.75164279 138.63175178 427.43642784 136.62695312 426.08789062 C131.83529255 422.94151707 131.83529255 422.94151707 126.36547852 422.80371094 C123.92283378 424.11032462 121.82932477 425.63488442 119.625 427.3125 C117.74684596 428.52490873 115.86228631 429.7274313 113.97265625 430.921875 C111.87556103 432.298977 109.78061143 433.67935041 107.6875 435.0625 C106.54603927 435.81332622 105.40435144 436.56380727 104.26245117 437.31396484 C101.89478956 438.86975971 99.52810064 440.42701778 97.16210938 441.98535156 C91.59610161 445.64960822 86.0161378 449.29251034 80.4375 452.9375 C79.36081055 453.64148926 78.28412109 454.34547852 77.17480469 455.07080078 C67.27248833 461.54539225 57.36289096 468.00879254 47.45166016 474.46972656 C42.67567201 477.58331773 37.90037414 480.69796724 33.125 483.8125 C31.20833657 485.06250496 29.29166991 486.31250497 27.375 487.5625 C26.42625 488.18125 25.4775 488.8 24.5 489.4375 C6.29166667 501.3125 -11.91666667 513.1875 -30.125 525.0625 C-31.0742334 525.68157227 -32.0234668 526.30064453 -33.00146484 526.93847656 C-34.91322278 528.18526109 -36.82500653 529.43200605 -38.73681641 530.67871094 C-43.60380178 533.85257936 -48.47030126 537.02718863 -53.3359375 540.203125 C-64.66636029 547.59770693 -76.00832746 554.973749 -87.375 562.3125 C-84.1810355 565.79898105 -80.6008784 568.25602212 -76.625 570.75 C-75.09290054 571.72653314 -73.56173349 572.70452991 -72.03125 573.68359375 C-71.15210938 574.24546387 -70.27296875 574.80733398 -69.3671875 575.38623047 C-63.94954536 578.873926 -58.56932843 582.41876871 -53.18533325 585.95809937 C-50.40066273 587.78865737 -47.61512283 589.61789035 -44.8296051 591.44715881 C-43.41781191 592.37429336 -42.00605868 593.30148876 -40.59434509 594.22874451 C-33.62885076 598.80360429 -26.65869228 603.37132917 -19.6875 607.9375 C-18.48966244 608.7221645 -17.29182716 609.50683247 -16.09399414 610.29150391 C-12.52108231 612.63196758 -8.94805302 614.97225188 -5.375 617.3125 C-0.60405672 620.43733217 4.16681306 623.56227649 8.9375 626.6875 C9.82784439 627.27075043 9.82784439 627.27075043 10.73617554 627.86578369 C21.04506046 634.61929728 31.34904586 641.38026029 41.6519165 648.14294434 C51.20276692 654.41188677 60.75599268 660.67718429 70.3125 666.9375 C70.90630463 667.32649475 71.50010925 667.7154895 72.11190796 668.11627197 C76.28282156 670.84852673 80.45389161 673.58054262 84.625 676.3125 C89.39594328 679.43733217 94.16681306 682.56227649 98.9375 685.6875 C99.53106293 686.07633362 100.12462585 686.46516724 100.73617554 686.86578369 C109.69382179 692.73407945 118.64808715 698.60751195 127.60055542 704.48370361 C161.07208237 726.4603925 161.07208237 726.4603925 194.625 748.3125 C192.13115208 751.10813775 189.37284919 752.74503404 186.12109375 754.578125 C185.00138184 755.21306885 183.88166992 755.8480127 182.72802734 756.50219727 C182.1315741 756.83744415 181.53512085 757.17269104 180.92059326 757.51809692 C178.38658447 758.94242079 175.85866239 760.37739886 173.3302002 761.8115387 C172.02250414 762.55303345 170.71447639 763.29394351 169.40612793 764.0342865 C163.08370435 767.61262854 156.78925348 771.23870131 150.5 774.875 C148.35156553 776.11589067 146.20312803 777.35677608 144.0546875 778.59765625 C142.99475586 779.21012207 141.93482422 779.82258789 140.84277344 780.45361328 C134.35374904 784.20228034 127.8616305 787.94558667 121.37011719 791.68994141 C115.97751686 794.80068339 110.58562178 797.91263327 105.1953125 801.02734375 C93.38870516 807.84752637 81.56473 814.6357326 69.72027588 821.38986206 C61.66236788 825.98644223 53.63082214 830.6257416 45.625 835.3125 C37.02977328 840.3443069 28.4018787 845.31639072 19.75 850.25 C7.42474804 857.27853507 -4.87222067 864.35490434 -17.15722656 871.45361328 C-22.56170645 874.57574605 -27.96847412 877.69391204 -33.375 880.8125 C-35.5416775 882.06248122 -37.70834417 883.31248121 -39.875 884.5625 C-44.20833333 887.0625 -48.54166667 889.5625 -52.875 892.0625 C-53.94733887 892.68116943 -55.01967773 893.29983887 -56.12451172 893.93725586 C-58.29276264 895.1881448 -60.46105697 896.43895852 -62.62939453 897.68969727 C-68.02217915 900.80048335 -73.41422093 903.91254238 -78.8046875 907.02734375 C-90.61129484 913.84752637 -102.43527 920.6357326 -114.27972412 927.38986206 C-122.33763212 931.98644223 -130.36917786 936.6257416 -138.375 941.3125 C-146.97023022 946.34430895 -155.59828125 951.31610658 -164.25 956.25 C-176.5986524 963.29384795 -188.93501456 970.35809944 -201.23242188 977.49121094 C-203.36770404 978.72871909 -205.50447865 979.9636549 -207.64257812 981.19628906 C-210.76608348 982.99845586 -213.88373051 984.81035704 -217 986.625 C-217.9492334 987.17051514 -218.8984668 987.71603027 -219.87646484 988.27807617 C-221.16351318 989.03181519 -221.16351318 989.03181519 -222.4765625 989.80078125 C-223.61085693 990.45880737 -223.61085693 990.45880737 -224.76806641 991.13012695 C-225.56349854 991.71540161 -225.56349854 991.71540161 -226.375 992.3125 C-226.375 992.9725 -226.375 993.6325 -226.375 994.3125 C-166.11895474 1025.63062987 -99.29054227 1045.1422474 -31.375 1049.3125 C-30.40272461 1049.37421387 -29.43044922 1049.43592773 -28.42871094 1049.49951172 C35.50658797 1053.30494394 100.1769464 1044.5303774 160.625 1023.3125 C161.60791016 1022.96751465 162.59082031 1022.6225293 163.60351562 1022.26708984 C223.30859926 1001.05607329 278.39453726 968.55488222 325.625 926.3125 C326.13208496 925.86326172 326.63916992 925.41402344 327.16162109 924.95117188 C334.63206631 918.31407324 341.75028501 911.30905739 348.84130859 904.27142334 C349.84596478 903.27480344 350.85209702 902.27966878 351.85986328 901.28619385 C357.82549245 895.39630997 363.42628602 889.34574593 368.63671875 882.76831055 C370.62616007 880.31106715 372.71544844 877.99565177 374.875 875.6875 C381.29069341 868.6257819 386.93663853 860.9616904 392.625 853.3125 C393.18300293 852.56339355 393.74100586 851.81428711 394.31591797 851.04248047 C401.94245536 840.76072896 409.02862619 830.28063569 415.625 819.3125 C416.11436035 818.50893066 416.6037207 817.70536133 417.10791016 816.87744141 C455.42341827 753.90922704 479.05347655 683.66762355 486.625 610.3125 C486.72941406 609.33748535 486.83382812 608.3624707 486.94140625 607.35791016 C490.16740532 576.05244762 490.05488861 543.59159286 486.625 512.3125 C486.49609375 511.10980469 486.3671875 509.90710938 486.234375 508.66796875 C478.69654336 440.33892082 457.01058685 373.36723205 421.625 314.3125 C420.82280029 312.96986084 420.82280029 312.96986084 420.00439453 311.60009766 C403.70851754 284.47620027 385.219124 259.20999423 363.890625 235.82421875 C362.65626029 234.45577649 361.42807663 233.08120141 360.23339844 231.67797852 C355.10816046 225.68375286 349.59344827 220.09481591 344.02001953 214.5222168 C342.38672552 212.88674118 340.7616153 211.24342292 339.13671875 209.59960938 C333.35963743 203.79227325 327.49494521 198.35350826 321.05908203 193.27294922 C318.52636625 191.23305878 316.13618131 189.08362285 313.75 186.875 C307.98908675 181.64683578 301.86737941 176.94274788 295.625 172.3125 C294.6030957 171.55380615 294.6030957 171.55380615 293.56054688 170.77978516 C224.30791113 119.58831162 143.66544247 87.76385482 32.625 74.3125 C31.65272461 74.25078613 30.68044922 74.18907227 29.67871094 74.12548828 C-34.25658797 70.32005606 -98.9269464 79.0946226 -159.375 100.3125 Z M-234.390625 133.4453125 C-235.63235474 134.14901978 -235.63235474 134.14901978 -236.89916992 134.86694336 C-237.79869385 135.38522705 -238.69821777 135.90351074 -239.625 136.4375 C-240.55868408 136.9744751 -241.49236816 137.5114502 -242.4543457 138.06469727 C-271.72049869 155.04683513 -299.15025728 174.75178047 -324.375 197.3125 C-324.88208496 197.76173828 -325.38916992 198.21097656 -325.91162109 198.67382812 C-333.38206631 205.31092676 -340.50028501 212.31594261 -347.59130859 219.35357666 C-348.59596478 220.35019656 -349.60209702 221.34533122 -350.60986328 222.33880615 C-356.57549245 228.22869003 -362.17628602 234.27925407 -367.38671875 240.85668945 C-369.37616007 243.31393285 -371.46544844 245.62934823 -373.625 247.9375 C-380.04069341 254.9992181 -385.68663853 262.6633096 -391.375 270.3125 C-391.93300293 271.06160645 -392.49100586 271.81071289 -393.06591797 272.58251953 C-400.69245536 282.86427104 -407.77862619 293.34436431 -414.375 304.3125 C-414.86436035 305.11606934 -415.3537207 305.91963867 -415.85791016 306.74755859 C-454.17341827 369.71577296 -477.80347655 439.95737645 -485.375 513.3125 C-485.47941406 514.28751465 -485.58382812 515.2625293 -485.69140625 516.26708984 C-488.91740532 547.57255238 -488.80488861 580.03340714 -485.375 611.3125 C-485.24609375 612.51519531 -485.1171875 613.71789062 -484.984375 614.95703125 C-477.44654336 683.28607918 -455.76058685 750.25776795 -420.375 809.3125 C-419.8402002 810.20759277 -419.30540039 811.10268555 -418.75439453 812.02490234 C-402.45851754 839.14879973 -383.969124 864.41500577 -362.640625 887.80078125 C-361.40626029 889.16922351 -360.17807663 890.54379859 -358.98339844 891.94702148 C-353.85816046 897.94124714 -348.34344827 903.53018409 -342.77001953 909.1027832 C-341.13672552 910.73825882 -339.5116153 912.38157708 -337.88671875 914.02539062 C-332.10963743 919.83272675 -326.24494521 925.27149174 -319.80908203 930.35205078 C-317.27636625 932.39194122 -314.88618131 934.54137715 -312.5 936.75 C-306.73908675 941.97816422 -300.61737941 946.68225212 -294.375 951.3125 C-293.69373047 951.8182959 -293.01246094 952.3240918 -292.31054688 952.84521484 C-276.88902395 964.24478793 -260.91914965 974.62322733 -244.375 984.3125 C-243.39611816 984.88822754 -243.39611816 984.88822754 -242.39746094 985.47558594 C-240.4558955 986.61472619 -238.51021832 987.74641791 -236.5625 988.875 C-235.42167969 989.53628906 -234.28085937 990.19757812 -233.10546875 990.87890625 C-230.59386076 992.46745291 -230.59386076 992.46745291 -228.375 992.3125 C-228.375 708.1825 -228.375 424.0525 -228.375 131.3125 C-230.94912506 131.3125 -232.15091449 132.17502154 -234.390625 133.4453125 Z M-154.375 258.3125 C-154.375 344.1125 -154.375 429.9125 -154.375 518.3125 C-144.14626085 512.34896523 -144.14626085 512.34896523 -134.25 505.9375 C-132.69996934 504.89341607 -131.14913762 503.85052074 -129.59765625 502.80859375 C-128.76637207 502.25026855 -127.93508789 501.69194336 -127.07861328 501.11669922 C-121.97172214 497.70872328 -116.82839785 494.35636326 -111.6875 491 C-110.85800339 490.45829163 -110.85800339 490.45829163 -110.01174927 489.90563965 C-106.13374865 487.37318847 -102.25448583 484.84267548 -98.375 482.3125 C-96.38540518 481.01434052 -94.39582142 479.7161641 -92.40625 478.41796875 C-87.67202779 475.32941985 -82.93698227 472.24213564 -78.20166016 469.15527344 C-73.42567201 466.04168227 -68.65037414 462.92703276 -63.875 459.8125 C-61.95833657 458.56249504 -60.04166991 457.31249503 -58.125 456.0625 C-56.701875 455.134375 -56.701875 455.134375 -55.25 454.1875 C-27.9375 436.375 -27.9375 436.375 -0.625 418.5625 C0.3242334 417.94342773 1.2734668 417.32435547 2.25146484 416.68652344 C4.16322278 415.43973891 6.07500653 414.19299395 7.98681641 412.94628906 C12.85380178 409.77242064 17.72030126 406.59781137 22.5859375 403.421875 C33.91636029 396.02729307 45.25832746 388.651251 56.625 381.3125 C52.01886324 377.26526686 46.83789187 374.50840136 41.5 371.5625 C32.73351361 366.66903987 24.05853925 361.64519926 15.4375 356.5 C6.22103732 351.00524027 -3.04495144 345.61204545 -12.375 340.3125 C-22.73148649 334.42923941 -32.99870693 328.41105885 -43.23046875 322.3125 C-51.22926538 317.55595659 -59.28382732 312.90909407 -67.375 308.3125 C-76.59886661 303.07242266 -85.76196147 297.74422662 -94.875 292.3125 C-105.36253106 286.06176558 -115.92500496 279.95945335 -126.53833008 273.92578125 C-133.95762906 269.70521245 -141.34242873 265.43389202 -148.66845703 261.05322266 C-151.34998036 259.15088846 -151.34998036 259.15088846 -154.375 258.3125 Z M-154.375 608.3125 C-155.2754795 643.82431869 -155.47473975 679.32586986 -155.47265625 714.84765625 C-155.47259189 715.94491642 -155.47252753 717.04217658 -155.47246122 718.17268705 C-155.47081458 731.76173861 -155.46046615 745.35077815 -155.44702661 758.93982255 C-155.43562743 770.67962255 -155.43029547 782.41942329 -155.42532361 794.15922749 C-155.4150095 818.21032446 -155.39754532 842.26141159 -155.375 866.3125 C-153.62847853 865.36006421 -151.88198291 864.40758103 -150.13549805 863.45507812 C-149.1629155 862.92466919 -148.19033295 862.39426025 -147.1882782 861.84777832 C-135.33729244 855.38039037 -123.60839181 848.731701 -111.9597168 841.90600586 C-104.16835989 837.34522646 -96.34306181 832.8460646 -88.5 828.375 C-76.17450519 821.34689327 -63.87777637 814.27009395 -51.59277344 807.17138672 C-45.10374904 803.42271966 -38.6116305 799.67941333 -32.12011719 795.93505859 C-26.72751686 792.82431661 -21.33562178 789.71236673 -15.9453125 786.59765625 C-6.47364119 781.12637994 3.00090355 775.66095599 12.50564575 770.24731445 C17.75991427 767.25452485 23.00836755 764.25172544 28.25390625 761.24365234 C30.49961919 759.95718151 32.74701636 758.67364625 34.99609375 757.39306641 C38.12890145 755.60641612 41.25295131 753.80536752 44.375 752 C45.31633789 751.46681152 46.25767578 750.93362305 47.22753906 750.38427734 C48.07541992 749.89008301 48.92330078 749.39588867 49.796875 748.88671875 C50.5403418 748.45963623 51.28380859 748.03255371 52.04980469 747.5925293 C52.56961914 747.17011963 53.08943359 746.74770996 53.625 746.3125 C53.625 745.3225 53.625 744.3325 53.625 743.3125 C51.63396263 741.59096855 51.63396263 741.59096855 48.95703125 739.96875 C47.93375732 739.30955566 46.9104834 738.65036133 45.85620117 737.97119141 C44.71666338 737.25158126 43.5770954 736.53201891 42.4375 735.8125 C41.25747818 735.05633122 40.0782106 734.2989843 38.8996582 733.54052734 C36.40997934 731.93927251 33.91735882 730.34274471 31.42285156 728.74902344 C25.95667945 725.25004479 20.53482841 721.68371149 15.11126709 718.11920166 C12.06559142 716.11834228 9.01698717 714.12195386 5.96875 712.125 C4.74087505 711.32032832 3.51301045 710.51564084 2.28515625 709.7109375 C-1.3199672 707.34843107 -4.92556054 704.98664247 -8.53125 702.625 C-21.82571854 693.9171464 -35.11591927 685.20282918 -48.4019165 676.48205566 C-61.52916502 667.86565382 -74.66273723 659.25893248 -87.79833984 650.65527344 C-92.009593 647.89690622 -96.2206149 645.13818601 -100.43132019 642.37898254 C-103.43631498 640.4099128 -106.44170144 638.44144693 -109.44799805 636.47436523 C-115.11527074 632.76522127 -120.77807254 629.04968119 -126.42785645 625.31393433 C-129.09860322 623.54849227 -131.77150431 621.78632716 -134.44458008 620.02441406 C-135.71893758 619.1831157 -136.9922361 618.34021074 -138.2644043 617.49560547 C-140.02778176 616.32502498 -141.79472441 615.16001777 -143.5625 613.99609375 C-144.56667969 613.33150146 -145.57085937 612.66690918 -146.60546875 611.98217773 C-149.15713169 610.44384709 -151.60408253 609.37904957 -154.375 608.3125 Z " fill="url(#g)" transform="translate(561.375,0.6875)"/>
</svg>
